<?xml version="1.0" encoding="iso-8859-1"?>
<!-- Generator: Adobe Illustrator 19.0.0, SVG Export Plug-In . SVG Version: 6.00 Build 0)  -->
<svg version="1.1" id="Capa_1" xmlns="http://www.w3.org/2000/svg" xmlns:xlink="http://www.w3.org/1999/xlink" x="0px" y="0px"
	 viewBox="0 0 387.6 387.6" style="enable-background:new 0 0 387.6 387.6;" xml:space="preserve">
<path style="fill:#73BF2D;" d="M193.876,330.8c249.2-57.6,0-324.8,0-324.8S-55.324,273.2,193.876,330.8z"/>
<path style="fill:#20953D;" d="M193.876,330.8c248.8-57.6,0.4-324.8,0-324.8V330.8z"/>
<path style="fill:#182D00;" d="M188.276,335.2V382c0,3.2,2.4,5.6,5.6,5.6s5.6-2.4,5.6-5.6v-46.8c80.4-19.6,117.2-63.6,109.6-130.4
	c-4.4-39.6-24.8-85.6-60-137.2c-6.4-10-48.4-67.6-55.2-67.6c-1.6,0-3.2,0.8-4,2c-5.6,6-138.8,150.4-107.6,252
	C94.276,293.6,129.876,320.8,188.276,335.2z M294.676,250.4c-10.8,34.8-42.8,59.6-95.2,72.8v-302
	C230.276,56.8,319.076,170.4,294.676,250.4z M188.276,21.2v302.4c-52.4-13.6-84.4-38.4-95.2-73.2
	C68.676,170.8,157.476,56.8,188.276,21.2z"/>
<g>
</g>
<g>
</g>
<g>
</g>
<g>
</g>
<g>
</g>
<g>
</g>
<g>
</g>
<g>
</g>
<g>
</g>
<g>
</g>
<g>
</g>
<g>
</g>
<g>
</g>
<g>
</g>
<g>
</g>
</svg>
